<?xml version="1.0" encoding="UTF-8"?>
<svg id="_레이어_2" data-name="레이어 2" xmlns="http://www.w3.org/2000/svg" viewBox="0 0 800 109.44">
  <g id="Layer_1" data-name="Layer 1">
    <g>
      <path d="M124.32,40.51C124.32,18.15,110.34,0,89.3,0c-13.75,0-25.71,8.81-31.94,21.25-6.04-7.08-14.68-11.76-24.27-11.76C12.61,9.49,0,25.25,0,44.73v1.44c0,34.94,28.33,63.27,60.88,63.27,37.57,0,63.44-28.64,63.44-66.46v-2.47Z" fill="#fff"></path>
      <g>
        <path d="M697.67,53.13v13.12h22.81c-3.09,11.45-10.94,17.82-22.53,17.82-14.92,0-24.95-11.17-24.95-27.8,0-17.51,9.83-28.39,25.66-28.39,9.61,0,16.73,4.58,18.66,11.97h19.7c-1.82-15.76-17.59-26.74-38.47-26.74-13.41,0-24.73,4.43-32.72,12.83-7.43,7.8-11.52,18.7-11.52,30.7-.06,12.11,4.14,23.02,11.82,30.74,7.86,7.9,18.7,12.07,31.34,12.07,22.31,0,36.98-11.6,41.29-32.66v-13.65h-41.09Z" fill="#fff"></path>
        <polygon points="176.33 15.48 155.19 15.48 155.19 97.07 172.22 97.07 172.22 40.11 192.2 97.07 205.46 97.07 224.96 40.41 224.96 97.07 241.99 97.07 241.99 15.48 221.33 15.48 198.83 75.59 176.33 15.48" fill="#fff"></polygon>
        <polygon points="578.61 15.48 578.61 97.07 595.64 97.07 595.64 41.42 625.49 97.07 644.09 97.07 644.09 15.48 627.06 15.48 627.06 71.13 597.21 15.48 578.61 15.48" fill="#fff"></polygon>
        <polygon points="800 29.54 800 15.48 750.63 15.48 750.63 97.07 800 97.07 800 83.01 768.49 83.01 768.49 63.43 798.32 63.43 798.32 49.71 768.49 49.71 768.49 29.54 800 29.54" fill="#fff"></polygon>
        <path d="M277.09,73.56c9.81,0,19.33-3.32,23.02-10.13v11.72c0,9.07-6.92,12.83-13.99,12.83s-11.51-2.5-12.63-6.54l-17.09,2.18c1.06,4.05,3.61,7.77,7.2,10.51,5.4,3.95,12.83,5.87,23.38,5.87,9.87,0,16.82-2.09,22.52-6.58,5.6-4.62,8.68-11.76,8.68-20.1V16.79h-18.08v27.47c0,8.76-5.88,15.12-13.99,15.12-7.66,0-12.42-4.97-12.42-12.98v-29.61h-18.08v33.5c0,14.57,8.02,23.27,21.47,23.27Z" fill="#fff"></path>
        <path d="M373.19,13.11c-27.42,0-43.63,19.95-43.63,43.16s16.22,43.17,43.63,43.17,43.63-19.95,43.63-43.17-16.22-43.16-43.63-43.16ZM373.19,83.39c-16.15,0-24.82-12.42-24.7-27.13-.12-14.69,8.55-27.11,24.7-27.11s24.71,12.42,24.71,27.11-8.68,27.13-24.71,27.13Z" fill="#fff"></path>
        <path d="M491.22,44.78c0-16.98-12.23-29.3-29.07-29.3h-34.64v81.59h17.85v-22.98h11.13l13.03,22.98h20.27l-14.36-25.92c9.49-4.74,15.78-14.79,15.78-26.37ZM459.18,59.79h-13.82v-30h13.82c8.07,0,13.94,6.31,13.94,14.99s-5.86,15.01-13.94,15.01Z" fill="#fff"></path>
        <path d="M570.43,97.07l-27.75-81.59h-18.36l-27.62,81.59h18.82l3.58-12.32c4.04,1.15,8.79,1.75,14.46,1.75s10.41-.6,14.45-1.75l3.58,12.32h18.83ZM533.56,72.9c-4.02,0-7.59-.3-10.76-.88l10.76-37.02,10.75,37.02c-3.17.58-6.73.87-10.75.87Z" fill="#fff"></path>
      </g>
    </g>
  </g>
</svg>