<?xml version="1.0" encoding="UTF-8"?>
<svg id="_레이어_2" data-name="레이어 2" xmlns="http://www.w3.org/2000/svg" viewBox="0 0 1100 168.47">
  <g id="Layer_1" data-name="Layer 1">
    <g>
      <path d="M175.16,79.56c0-27.18,15.39-48.6,44.15-48.6,13.33,0,25.16,6.52,31.04,17.4l.59-13.44c.04-.88.77-1.58,1.65-1.58h17.52c.91,0,1.65.74,1.65,1.65v89.13c0,.91-.74,1.65-1.65,1.65h-17.53c-.88,0-1.61-.69-1.65-1.58l-.59-12.8c-5.03,10.6-17.18,16.75-31.63,16.75-29.75,0-43.55-21.42-43.55-48.6ZM251.13,79.56c0-15.87-8.81-29.39-27.01-29.73-14-.27-26.18,10.74-27.75,24.65-2.21,19.59,8.3,34.82,27.03,34.82s27.73-13.66,27.73-29.74Z" fill="#fff"></path>
      <path d="M0,79.56C0,52.39,18.25,30.96,48.8,30.96s48.8,21.42,48.8,48.6-18.25,48.6-48.8,48.6S0,106.74,0,79.56ZM75.97,79.56c0-16.86-9.72-29.36-27.17-29.36s-27.17,12.5-27.17,29.36,9.72,29.36,27.17,29.36,27.17-12.5,27.17-29.36Z" fill="#fff"></path>
      <path d="M112.8,124.13V35c0-.91.74-1.65,1.65-1.65h17.65c.89,0,1.62.7,1.65,1.59l.67,18.14c3.37-13.09,14.48-20.92,24.6-20.92,4.48,0,6.6.35,8.53.8.75.18,1.28.84,1.28,1.61v16.37c0,.98-.87,1.74-1.85,1.63-2.68-.29-5.22-.5-7.97-.5-15.28,0-24.6,11.82-24.6,32.84v39.21c0,.91-.74,1.65-1.65,1.65h-18.32c-.91,0-1.65-.74-1.65-1.65Z" fill="#fff"></path>
      <path d="M1009.23,124.37V35.25c0-.91.74-1.65,1.65-1.65h17.65c.89,0,1.62.7,1.65,1.59l.67,18.14c3.37-13.09,14.48-20.92,24.6-20.92,4.48,0,6.6.35,8.53.8.75.18,1.28.84,1.28,1.61v16.37c0,.98-.87,1.74-1.85,1.63-2.68-.29-5.22-.5-7.97-.5-15.28,0-24.6,11.82-24.6,32.84v39.21c0,.91-.74,1.65-1.65,1.65h-18.32c-.91,0-1.65-.74-1.65-1.65Z" fill="#fff"></path>
      <path d="M288.28,124.13V35c0-.91.74-1.65,1.65-1.65h17.74c.88,0,1.61.69,1.65,1.57l.58,11.33c5.75-9.92,16.46-15.27,30.15-15.27,22.21,0,33.72,12.49,33.72,36.7v56.47c0,.91-.74,1.65-1.65,1.65h-18.31c-.91,0-1.65-.74-1.65-1.65v-46.55c0-19.64-5.16-28.17-20.24-28.17-14.08,0-22.01,9.32-22.01,25.59v49.13c0,.91-.74,1.65-1.65,1.65h-18.32c-.91,0-1.65-.74-1.65-1.65Z" fill="#fff"></path>
      <path d="M893.26,107.26c-2.59.29-6.36.52-8.95.52-8.53,0-13.49-1.99-13.49-18.05v-38.08h21.45c.91,0,1.65-.74,1.65-1.65v-14.38c0-.91-.74-1.65-1.65-1.65h-21.45V6.34c0-1.04-.99-1.8-2-1.53l-18.4,4.93c-.72.19-1.22.85-1.22,1.6v22.62h-45.44V10.97c0-1.04-.99-1.8-2-1.53l-18.3,4.9c-.78.21-1.32.92-1.32,1.72v17.89h-14.02c-.91,0-1.65.74-1.65,1.65v14.38c0,.91.74,1.65,1.65,1.65h14.02v43.04c0,31.14,19.44,32.53,29.95,32.53,5.58,0,11.15-.46,14.71-.98.81-.12,1.36-.82,1.36-1.63v-15.58c0-1.07-.9-1.89-1.96-1.77-2.59.29-6.36.52-8.95.52-8.53,0-13.56-1.99-13.56-18.05v-38.08h45.51v43.04c0,31.14,19.44,32.53,29.95,32.53,5.57,0,11.15-.46,14.71-.98.81-.12,1.36-.82,1.36-1.63v-15.58c0-1.07-.9-1.89-1.96-1.77Z" fill="#fff"></path>
      <path d="M567.58,99.13c-.72-.19-1.46.16-1.83.8-3.67,6.37-9.93,9.38-20.06,9.38-15.67,0-25.19-7.94-25.78-22.61h66.97c.93,0,1.72-.78,1.79-1.71.31-4.15.47-6.86.47-10.19,0-25.99-17.85-43.84-44.24-43.84-28.17,0-46.41,19.04-46.41,48.6s18.05,48.6,47.21,48.6c18.89,0,34.3-8.77,40.21-22,.44-.99-.17-2.16-1.22-2.44l-17.11-4.58ZM544.47,48.02c14.37,0,22.63,7.4,23.36,20.78.04.76-.6,1.44-1.36,1.44h-45.17c-.77,0-1.42-.67-1.36-1.44.83-12.32,9.83-20.78,24.54-20.78Z" fill="#fff"></path>
      <path d="M737.79,99.38c-.72-.19-1.46.16-1.83.8-3.67,6.37-9.93,9.38-20.06,9.38-15.67,0-25.19-7.94-25.78-22.61h66.97c.93,0,1.72-.78,1.79-1.71.31-4.15.47-6.86.47-10.19,0-25.99-17.85-43.84-44.24-43.84-28.17,0-46.41,19.04-46.41,48.6s18.05,48.6,47.21,48.6c18.89,0,34.3-8.77,40.21-22,.44-.99-.17-2.16-1.22-2.44l-17.11-4.58ZM714.68,48.27c14.37,0,22.63,7.4,23.36,20.78.04.76-.6,1.44-1.36,1.44h-45.17c-.77,0-1.42-.67-1.36-1.44.83-12.32,9.83-20.78,24.54-20.78Z" fill="#fff"></path>
      <path d="M972.47,99.38c-.72-.19-1.46.16-1.83.8-3.67,6.37-9.93,9.38-20.06,9.38-15.67,0-25.19-7.94-25.78-22.61h66.97c.93,0,1.72-.78,1.79-1.71.31-4.15.47-6.86.47-10.19,0-25.99-17.85-43.84-44.24-43.84-28.17,0-46.41,19.04-46.41,48.6s18.05,48.6,47.21,48.6c18.89,0,34.3-8.77,40.21-22,.44-.99-.17-2.16-1.22-2.44l-17.11-4.58ZM949.36,48.27c14.37,0,22.63,7.4,23.36,20.78.04.76-.6,1.44-1.36,1.44h-45.17c-.77,0-1.42-.67-1.36-1.44.83-12.32,9.83-20.78,24.54-20.78Z" fill="#fff"></path>
      <path d="M465.21,33.34c-.88,0-1.61.69-1.65,1.57l-.58,11.6c-5.55-9.32-16.67-15.55-28.96-15.55-27.77,0-46.02,21.42-46.02,48.6s16.67,48.6,45.43,48.6c11.31,0,24-5.55,29.55-14.88v8.77c0,20.83-9.32,28.56-26.98,28.56-12.63,0-19.84-4.46-22.82-11.63-.32-.77-1.12-1.22-1.93-1l-18.37,4.92c-.96.26-1.52,1.31-1.15,2.23,2.41,5.95,6.59,11.13,12.26,15,8.53,5.75,19.9,8.33,32.2,8.33,13.29,0,24-2.38,31.74-8.13,10.91-7.93,16.66-21.62,16.66-39.87V35c0-.91-.74-1.65-1.65-1.65h-17.73ZM436.59,108.92c-16.27,0-26.98-12.5-26.98-29.36s10.71-29.36,26.98-29.36c17.65,0,27.37,13.49,27.37,29.36s-9.72,29.36-27.37,29.36Z" fill="#fff"></path>
      <path d="M663.29,107.52s-.07,0-.1,0c-1.96.14-3.99.26-5.62.26-9.99,0-14.14-1.99-14.14-18.05V1.65c0-.91-.74-1.65-1.65-1.65h-18.31c-.91,0-1.65.74-1.65,1.65v94.99c0,29.88,16.62,30.57,29.95,30.57,3.99,0,8.61-.24,11.85-.56.84-.08,1.44-.8,1.44-1.65v-15.7c0-.98-.8-1.86-1.76-1.79Z" fill="#fff"></path>
      <circle cx="1083.73" cy="110.27" r="16.27" fill="#f5731e"></circle>
    </g>
  </g>
</svg>